<mxfile host="app.diagrams.net" agent="Mozilla/5.0 (Windows NT 10.0; Win64; x64) AppleWebKit/537.36 (KHTML, like Gecko) Chrome/131.0.0.0 Safari/537.36" version="25.0.1">
  <diagram name="Page-1" id="uV2hPdmrbHXCqQttDh2U">
    <mxGraphModel dx="1434" dy="780" grid="1" gridSize="10" guides="1" tooltips="1" connect="1" arrows="1" fold="1" page="1" pageScale="1" pageWidth="850" pageHeight="1100" math="0" shadow="0">
      <root>
        <mxCell id="0" />
        <mxCell id="1" parent="0" />
        <mxCell id="Q4VFB08nHRXM-QzRVLUr-1" value="This is a test shape" style="rounded=0;whiteSpace=wrap;html=1;" parent="1" vertex="1">
          <mxGeometry x="210" y="170" width="270" height="150" as="geometry" />
        </mxCell>
        <mxCell id="Q4VFB08nHRXM-QzRVLUr-2" value="This is the third shape in the first PC" style="rounded=1;whiteSpace=wrap;html=1;" parent="1" vertex="1">
          <mxGeometry x="80" y="60" width="260" height="70" as="geometry" />
        </mxCell>
        <mxCell id="P4ivsHE_MrvCZc-kwXap-1" value="This is second shape from another PC" style="ellipse;whiteSpace=wrap;html=1;" parent="1" vertex="1">
          <mxGeometry x="180" y="350" width="460" height="310" as="geometry" />
        </mxCell>
        <mxCell id="Q4VFB08nHRXM-QzRVLUr-3" value="haha2" style="ellipse;whiteSpace=wrap;html=1;" parent="1" vertex="1">
          <mxGeometry x="480" y="55" width="120" height="80" as="geometry" />
        </mxCell>
        <mxCell id="P4ivsHE_MrvCZc-kwXap-2" value="haha" style="ellipse;whiteSpace=wrap;html=1;" parent="1" vertex="1">
          <mxGeometry x="650" y="110" width="120" height="80" as="geometry" />
        </mxCell>
        <mxCell id="xOj9YhO4ne7PrwJePdEp-1" value=" &lt;section&gt; &lt;h2&gt;&lt;br&gt;&lt;/h2&gt;&lt;/section&gt;" style="text;whiteSpace=wrap;html=1;" vertex="1" parent="1">
          <mxGeometry x="100" y="660" width="130" height="120" as="geometry" />
        </mxCell>
        <mxCell id="xOj9YhO4ne7PrwJePdEp-2" value="" style="shape=image;verticalLabelPosition=bottom;labelBackgroundColor=default;verticalAlign=top;aspect=fixed;imageAspect=0;image=data:image/png,iVBORw0KGgoAAAANSUhEUgAAAHUAAACnCAYAAAAv8hOYAAAAAXNSR0IArs4c6QAAAARnQU1BAACxjwv8YQUAAAAJcEhZcwAADsMAAA7DAcdvqGQAAChpSURBVHhe7V0HfFRV9v6mpBMSWkISSIAQeu9FBFGqKKCCbS3YG4q6ixXXXd31r6IsbXHXuquu4AICgnSQXkPvJUASSEhIJ3VK/ue7Mw+GmECACXmTzcfvkZl5b968ud8953zn3PvuGPLy8opRjSoFQ1FRUTWpVQxG599qVCFUk1oFUU1qFUQ1qVUQZQolo9HgfFSNiobd7l6tWiapNptN9lYTW+GQ1jfRgNzY1qWSyp6zdddRpGflisU6X6yG21EsLe/v542enZrDx9tLnrvHYn9DqkF6DE8+6cufsWbrAXh5mVRvcs/HVSB0f4EXoYxSNqvVhjbNIvH2C6Pg5+MFu5tILcUOHScmmV4mo2wmmOUvXYSeN7PJAC+zXK8HbGZxf2xXtZlNbo9ypViqwy1M+/cvWLv1oCK0TnAgwkJr69oaDNI9zUKu3kEBmpqWjVNn0iTM2dFaLPW1Z0fCT9yvuyz1iqTSFQ++uSMeuqc/iuUi9Aqb1YKC/DznM/3Cy2zGZtErX/z4q3peEaSWSwZ5e5sR4OuNGv6+ut385PrY8/W/2WASt1uRTq9cpMq16B5U7PQqet9ojXZbxTZodcJSGajg0F9NahVENalVENWkVkFUk1oFUU1qFUQ1qVUQ1aRWQZSLVHcXnCsCRoMRJg48eMDGkbCKRLlqv4P6dsTo23vDVmyV5zYeBbN3Mbz9KrLYdTUoRmFeMdKSc53P9QsOkOw7egb/+mmdauhKKegb5YUWTRsgKNAf5y0ZsBYXwG4zITQmG426p6tjKxtGow35CQ1x7Nd6sOm8psnRJD8fb2zbGwebrZJGadizQusGI/7MORRLexnkn81qQli344i+c4e8Vvm+2WCywnqkM3bMioHFZtV5uChGTKMwJCalqUHySiM1PKQ2UtKzVM8i7FYj6neJR5Mhe3RCqgXWox2xa25jWKx6JxVo3KAeTiSmVhip5RJKjKtWq12RenGzSYy1yIXoYbOK27XBesn16Xdje1YkrmipnCoS1SAEuXmFKLIVyD67xFSx1PZJaHzrUXmuA0s1WmGJa429PzeURrPKC84dOgTDV/16wThyMqny3C9jQJ9urXFLj7bItVIo5SsiA4OB2mFqd6WD4iM/3QdJxxxjlnqG2WRC4tkM/LR8u4SuSlK/bKQ7b+uGx0bf6jxCn7BZ7MjOTnM+0y+8vMzYtPM4/v6fFcqhVFpMdfcM8oqAxVaE/EKL7re8giIRc8z1Kw7lIrUa7kVFq/Pykapj4aGBAoSNpf9N/qvgBr1KSxUhApHksulCIbnC2WD635zkOi+7InBl9StP+vVsi8F9O6LQlivq16L2+wcWI7COPkpySv1mmpAc57g2PcNkNuJUYhpmL9mqRGilqF+T0YjI8LrIzs1HgTUXtuIiVfsN73AWMQPi5NiK7HPlA8uERcdbY9/8KFj1nqdKA4eH1sJRladWYu03LKQWzkhuxVq5OBDYrSbU7xKHJsN2qnpwZYOkWo50xs7ZTRSp/A56RnRkKE6dPle5ZUISSbfBm5BMZnmTqVg2I4wGs2xeuthMBt7IZRLPov+NI18ViXKRyv7D6oetmPVVm6qz8hYCTTTpYVP/PGSWPreKxBXdL+/Sat44HL4+PiiwnXcU8a0GhLTIQFTP03Js5fs6g8mOwlONcXhViOp0ena/9Ho1Anyx8+Ap2Cqr9steNaRvJ/xuZF+n+i3iUfD2MsHHx9vxpkoGGyo/rwhpKTly8TpmVECNsvfIaXw9d61q6Eoj9Y7buuLx0bc5j9AnioosyMxIdz7TL3iT8dY9J/DZzJXSFSux9qsHhXsl8BZBul69bxbZqEcqEldZUaqGW1DBEaJ8KY2+w5SCwSAplog6vW8s5lADVCTKRapN/G8Bh40K85FbmIvcglzkW/JgKc7Xz2YrhMVil01cnK43q4qdFUnrlVMaed6lXQzatohCrjVTTRHlZLPgMAtCowvkYOcbKxEGYzHyzwYhYbevI17p2LMYxVJz8gqxfP1eda2VVyasF6ymYFhtFuFQUn2rCeFdTyHmDp3MJjRbUHSoE3bNjoHVA2YTRkeFqim3lVsmlHhlFinu4+UDXy9f+Jp94W3yhkmV53SwwRtmo5fqgGaWM3W8sdyqnzKh9CKmDdx4+4Vd4ixnFrqW6ip9k2v0iE3+ucLdFF/R/XKKaHRUmLxuUBUlzrHlFNGQVufQqE+8HKwD92u0ovBkDA4uC1O5oJ7dL6+tVs0A7D2SeNH9PjNC3YrhtphaWFhYKqnTv118oaI0oE8HjBrSC/m2bBFKhdLPDPD1NaNGDbPzXZULXnN+jh3nzuT/xgr0Bo4kHYpLxnfzN6i2Janjnx4BXx83LjhZHlI9oUxoLbIiM8sDpohyxbPdcfjsB5cyoViqO1cRLV9M9YAyodVuRZHkgXrfCpmn2qrLhFUPNNEKRDWpVRD/M6RqUzRLA19npaes/deKijhnefA/QSoblyt3cjOLUNHA1728vNTrBPdpj68XJFMTPjea2CpPKhuU99LGxsZi3bp1yM7OVmRqVnTmzBls2LABK1aswPbt29V+d5Ag+T82btyIuDhOo3WPqi0vqjyptL5du3bh6aefxiOPPIJPP/0UBQW8z7YYa9euxauvvopHH30UTzzxBO6//378/PPPl1jztWL//v2YMWMGFi5ciKNHj95Qa/2fsNSlS5ciISEBubm5qqHZ4Hv37sULL7yAlStXKuskydx/6tQpZcXXCn4eBxXoGWJiYlCnTh3lIW6ktf5PxNSAgADnIyAoKEhZ4rJly5CSkqJea9SoER588EE88MADaNKkiXLX1wOev1WrVmjdujVatmyJxo0bO/fcGOiS1Ovt1bQWNixFEK2uX79+aNGihWpcuuB27dop69SOffHFFzF16lS1jRw5sszP186pnVeDyDDZzGpjlZLn7NGjB3r37q2s9bbbbmw1rkJIPX/+vIojq1evxvLly3Ho0CHk5V3+RwvS0tKUW1y1ahWWLFmi3NfZs2fV+/g3OTlZuUfGQz7mlpqaWuokLpKSkZGh9p87dw7t27fHBx98gAkTJmDs2LHw8fG5YI183KBBA2W1SUlJ6vy8fhJTEpmZmep8PG9+fr46phg25CIDechEPrLUeBEHOUg6z1uzZs1Sr7Ei4daKPBXfgQMHsHjxYsyZM0eRyQZu2rQpHnvsMdxzzz2IiIhwHu0A30Mh891336nYd/r0aRWTateujcGDBytCdu/erY4bPXq0cmnvvfeeaih/f3+8/fbbqvE0MCVh/Jw8ebLqBN27d8fQoUNVZyEpVLuPP/64+gzCYrGoOFuvXj11rTxv8+bNVbzVQIL4XoosdhZ2iDFjxqBH957Is+Zhn30h0nESBrHYZsZ+aIJe6lw8d2XAbaTyiy5YsEA18uHDh9VrbGA20p49ezBu3DisX79eWQxJJvieRYsW4ZVXXsHJkyfVa2xAujdazddff61e08DYd9NNNylFScsm6OIeeugh9Zjge9mp2EkIxjRa3zfffIOcnBzlitnBNPfJa1izZo16rFlUjRo1VAcMDw9X+3lOdqzPP/9c7ef3euaZZ8TPAt4IQLAhAjvsP4qtnkaifSfMRl9EopMcSbu9cQJJg9vcL93lc889pwilWyJxDz/8sGqcWrVqqWNmz56tUgg2LkGyGc80QilSmFY89dRTqvHpulzBmEYL5nk10CNoZJAouk6mJQQ/984771RW4+fnp16ju3V1rTzniBEj1HX06tVLvcZzkGiSqR3LPFZD//790aZNG7F2x/Se1oah6G98BXXFRtOLE7Da/jck2fcry1XM32C4hVT25okTJ6pYQ1AcfPXVV2r78ccfMX78eAQGBqp9tObvv/9eETFlyhQkJiaq16OiovDZZ58pC+PrjKt0gXSxGkgOQTGjkbRt2zYVX2k9JGHLli2qsxB9+/ZVnUtztaXB29tb5bAffvghXn/9dfWcYA5Ll8/z8nvxOUGShw8fDl9fX+f1iJuVqNrKMBg9jY+iBuogpfgoVhZPQhrihFY6wxtLrFtIpXjYunWr8xmUO+zTp4/zGVRj3XXXXc5nwPTp05WQopvUQAEzYMAA5zOHRf35z39WFlsSVJYdO3ZUjxkjmWuSUDbyvHnzUFhYqKyW5+PrVwLJo3UyfnMjKPIY30kyc9oTJ06o1xl7adGu8ZLUWkUmtTMMR2fjffBDMJJwQCx2qkinM9LIFaJHy4RbPo1K0NUaaKklcffdd6teT7CxfvnlF9WQBHs9raokeDytwtVdEiSKblV7nTGW3oICiYKIaNiwoYq3VxIr7AjceP3MYemKCQojagB+FhW8dp6bb74ZYWFhF1y+Brph3k7Zw/AIOhlHwVds9kTxZqy0fyp2nCa2euOIdcsn8QtqrpENzThVEmwIrQjAY2nd2ntolZrbKwlaRklSiUGDBilBQ9BSKazosumKCVopiS3Z+GWBn0GLvfXWWy/EcpLJ82qul51syJAhF7xCSdjFXhlHWxoGws9QSxyvN04Vb0dy8aEbaq1u+SR+QdcvWRoJJY+pX7++IpPIysq6oJhdQUI2b95cKjEdOnRA165d1WMqYcZukkqwUzHhd+1s5QGtkQWKW265RT3fsWOHcufx8fHqOYXc5ayf8TMX57DN/h1yi1OlcU3iku9EA0N7IbxiF8RyxQ3rPq6NS1fHVIMKUgPFE90nG4xk0DXTlfL1ssDSnubSmf5QgRPMM0n65QRSWWCHGDVqlPrLoscXX3yhwgtBK2Ytt7SOQgILkSeEfo99xYuUO25quBm9jU/CBzXV8xuFG+cTXEDSgoODVQqkudD58+crtTtz5kyVu06bNk0l+Iy/ZYHWSLdO7Nu3TxUbCLrIkJCQUi38SmCnohCjLuD7NQ9Cl0sLphcqSSpdrk1c7077bGwvnqniZxS6oJ9xrMTWILHSG1uEcJv71RqQj0vrya7H8C8V6n333Ycnn3xS9X6C6Q5zUCrlN95440K6o6HkuSMjI5X1uIKxeeDAgUo4aXD9bO39ZV0v38dc2FWIEW3btkWXLl1U3HUF72Czogh77POxufhf8koxGqCDEPoiAhEiZBc6DryBcAupTB9ocRRC/Ku5RFe4HsOcVWswlt7eeustlUqEhoaqfSSGx9atW1dZIl9jvkprKRmv6SopbHhe5q49e/ZUVubqevkebb+WX/Iz+Jyva9UlDXzvsGHDlDfRQOvnc9cO4IABx7EWm4q/ETrtqI9W6G98GXUMTYTsG08oYZowYcK7zscKWptt23NMrfVDNGscgU5tmqjHpYFflA3BGEnXxdyS7s8VtAw2HsnTjtEajUSwzstCAUdTOnXqhG7duilrYYpB8cL30f1FR0er92gg8TwvLYlxmlbO+rArqbQ+biSbtWDup6dgxYnWx+vhtZB8blqnpOegCGOHYq5NcefqAWilFslPE+w7EWxsIBbaTtKZ0QgztBJCC5xHXQpea1JKJmL3s1YMhNQJwk1dWqhJ3u5CuSZzD+vfFU/cp+/J3IRWbP+Ni5QvRctkg2r7afUUQ/x+fM6N+/ka/1IgvfPOO+p45qYUbCS7pKVSAJnknxEscpAm6eCXsVDeaBa77yT+OWu1OrrSJnN7Amh5LNyXlm5oxLnupyXzuVZ9Ytoya9YsNVL05ZdfqpIlCSXJ9957r7LW0hqd1kpipauo+FlZLtcVVYZUNri2lYaS+12f0wJZDKGL5bDcm2++qdIrgu6ZoaGs3JSQs1z4pwdUGVKvBySW7plxlX9plSwZUl1z9IaPXWOp3lFNqoCEsRzJgQjOLGR+/Pzzz6vpLSw30kV7EqpJFZBU1ok5wP/++++r0SEOF1KhX87t6hXVpDqhFUS0jXOjWKrUYrAnoZpUF7iKJ08kU0M1qVUQ1aRWQVSTWgVRTWoVRDWpVRDVpFZBVJNaBVGlSeXoC9fX1dVmqvh1IKosqWw2rlF8Pr9AtkL9bLmF4C9HVSSvVWaQnGOj6emOH0bgCtj5+UVYvmEfss47bjnUCwxirVzIOXbfCfD3yStikLxKkspflFi//Qj+NW+9WIVjyMxN7XVdYNuyg3EdQv51XXCyeubDZcA4ei4jBys27Zf4ZYCfrzcC/HwQGOBb6Zufr4+6nopGlbLUDLFUkjpvRSwWr9kDLy8TvL3M6NK2qfrVJnctvXot4HUlnD6HA8cSVHggNEsdL5bqW+1+fwuSmpOVhbjEVEz/fgXyRJTY7MW4uWsrjB1zu1tn610rklLS8f7U/yIpNVOtIk5S2zR3LA1b7X5LAWNUkQiQ5ev3Ifu8Y3pm3eAaGDmohy4IJcJCamNo/y7qxyY0/rSY705UGVLZ83cfiscu2bhWPV3tbX06oFHDS+cfVzZu6dkGLZs2UCuIM2c9m5YlGiBb5bDuQpUhNSMrD8s37lczGGyyNYmsr35yW2/wF7E0clBPUcAOwZSecR6rNu5Tv0nA0OcOVAlSGYtWb9qn7iigIPEymTFiYHcEBV5cFEtP6NimMXp1biHWalcKfdXGvTgcd1pNVXUHqgSp/I2Xpet3SU8X8SFurZM0WvcOzZx79QdOAL/zti6oWytQzRTOyc3HguXbUVhYpLTB9cLjSaXQmL98K1IlNrE9agb6K3HEAoSeERURgoE3d1CPvSTtit13HFt2HVXa4Hrh8aTuPnQS67cdVD84wFg6sHd7NG9y6QJcesXQfp0R0yj8gg6Yv3wb0jJzVAi5Hng0qbmSi85evElSGYtSuw3D6mJQPy5K5RkI8PfF8IHd4M2btYwmnEhMwdK1u9S+63HCHk3qr5v34dDxROVqmRLc3r8z6tW+dEEtvaNb+xh0aRsNq1gqv8PKDXsRF3/2unLrMkl1U3GjwpB8LhOLVm6HQa6T4qhti0jJAds693oOSOTdQ3oiOChAaYL0rPNYuEpEU5HlmkWToaCg4BL6eB4SOv3fS7Buuz7LhCTxi1krsHhVrKrv+kru98azd6N1s4bOIy4i6VwRjiYUint2vlBJ4Mf7+RjQLtpfctXf2tIP89fhx182KKHEUDJuzDD07twclmuoOJVN6rdCqggQPZK659ApfDhjrvTmIpXr3X5LFzx5/8XV0jRknbfhD9MSsHBjFrzNTCQqD2xTu/Sst8eEY8ywuhIyLr2ajKxc/GnyTCScSVWkNo0Kw+vPjkRQDX8loq4GHkdqfoEFH//zJ+yUFIB5af16wZjw0miE1XMsaqkhv9COj75PxkTZ7upbCxEhXtKozp2VAAraTftysetwHr77YxMM7R2k2toVqzfuxYzvl0qb25WFPjSyL0aIkLra+rDHkbp8/S7MkGtj3dRuK8aYe2+V6+vi3OuAVV7/9+I0vDQpHo/fUReTXmoo36sy7dSBxLNFuOet40jJsGD2X5uiU/OLi2kS9DofzpiD2L3H1fPawYF4e+zdaFi/jtpXXniU+k1Ny8aC5Y6FLRlXm0eHo38p4mjl9my8/vdE9O0YiHceC9cFoUSDUG98Nj5KrBB4YeIpnEi6dG0KxtO7BvVQY78cc01NzxIxGKuGEK/mK3gMqUzQf1kTi4QkR32Xvzd61+Ce8PdzLIWnYc/xfIz9JB4N63lj2qtRqF3TrYuPXzc6NPPHjPGR2HssT8X7tOxLV2VrGdMQ/Xq0VfFXTcuJPSQa4uRVVZo8htTj8clYuX6Pyt8oHHp0aoHOkt+5Il7c24ufnEJ2ng2TX4lEo7CKnzpyLRjWOxjvPhmB+Wsy8MG/knA+/1LXOuzWLogQl8vQl19QJN5pmxoj1mZMXAkeQSoHv39ashmZOXkqNWAhfPiArpe41YwcGyb88zS2HMjDJ2MjcVN7x/J4esWrD9THMyNDMHnWWXyz6Jy45IvShmsrsZBiEBJprXsPx6tSaHnLhx5B6tbdR7FNxIO35KQUcYP7dlIFcQ15BaJ0v0vCf5alY/yDoXhwUG3nHn3j/acjMKhHEN78LBGLN2VdkkuzkML5S9QOnFa66NcdSE7NVALxStA9qZnZufhp6WZYLVy1zC75W33cdpNj9WyiyOJQuhO/P4uHh9TB24+GO/cAhbIvJcOKs+kWtZ3L4g/nurScG1BYZEdKulWlUFeLoBomTBrXEI1EQD0vwmnbAcei1gTnLI0Y0B3+viKaxCOdScnAotWxKtZeSTTpmlTGlGVrd+L4Sa6Rb1QzA++UvC0o0JEKkJ5FGzOV0u3doQY+eDYCXl4Xv/HBkwV4+x+n8dr0RBEliZggj79bkiaq032rrRw4UYA3ZiRi837HCqZXi5gGvpg+vpF0QDvGTozHscSL19ahdRP06tJcaQgv+f6/bt6PQ8evPJiua1JPnU7FkjU71Zwj5mld2zVFz47NnXuB7YdyMe5vCQir44WpL0cipNal6+WfEvI+n5eCJZuzsEfU5vy1GXj8rycwblICzmVe/VrApeFkchG+mpeKgyccawJfC/pI/J/0kijio/l47e9ybeJRCHZPzuCoV8cxSJGbV6hSugIRT5dL03RLqsVqxZzFm5Ge6fi5k1pBARg5uIcqgBNxpwvx0icJyM23KRfWNtrx6xeuMEs24+9nwsv3hWLp35ph1l+aole7GliwOh2rdzh+Fux6wc/wEzfq4319TfngoDp45aH6mLcmE+99LYpYFDwREVoHQ/s5iivUFDsOnMDGHYcvm+LoltSd+0+IQJKLF5fLHJVFhujI+mpfuuR2dKs7Dp3HeyI2BovYKAt00fXEgkNreymLeFYUp9nXeMEaiFxJKc6csyAhpQiZ50svyVGM8ZjTqUWSglx6DI2G6lU7R5rLuTWQpNOpFiRLbC8sKj2uv/NYGB4SXTDlh2R8seDchfjfv1dbxDQKU26YIWnhqlikpjt+B7Y06JJUDn7PW7ZFvrxVCQMOfg+5xTH4zQb967+TMXNFBl4YHapIuhJcZ+YH1zDDJCxozutsmhX/EPfJgsWzH57CR98mYdeRPPlc5wGCpDQL/rkgFS+J237uo1OY9t+US9w3Z84wFLw8OR5PfXASf/z8NHbKOTTQq0ybnaLE0O+nJiphd+bcpdUkwsfLiP97rgH6d6uJN0QRL9roUMQ1a/hJCtdD9nuJpzLhpISlFZKzE6U5Yd2Ryp64YsMeHDiaIOLABLPkapxSWbdWTWUNX/6cikkzz2L0rbXw5ycuKt2ywC+dl1+sLJDk/LozR85rEOVpFjVdjL8Kia9OisfWA7lIybTg0x/O4sE/xuGks4SXKur5tWkJeEdyYAqsfcfz8cbkREyf4/iZTkejGjB/XSaOxBfgqAid6XKOlyXWM3emtb0yxfH+Y4kF2Lr3vBB/Au9+cQYFopxLor54lMmiD6JCffDipFPYst+hiHt0aoYeHZspazWLhS5bvxvHTyWVKpp0R2pichoWrdwmPdIgvdQuCjBaFCCnUxbjF8nl3v38DLq19MeHz0WoeHkl0EMtkvd99F0yXvo0XqwyBcP71sIAsQa6w5nL01CnthmfvRaJlVNbYOyoEBwQK5u/LkO9f+6aDHwrrvC5u0OwYkoM5n8Sg45tAvCTxD5ek+Z6e7QOwIKPYzD3g6Zo3TIAa2KzsXlfrhJoizZkobfE8hVTmmPhpzFo09Rf5dTHXZSuK9o08VMVsQIJC89/HI9Dpxx3HIwY1EN1bhYlMrPlGpdvk1SqUKU8rtAVqfSSv0gulpKWqeKFr6+3qhwxlTkoX2ycWJSfr8nRk8MurfmWBX7f3ULSrBXpWLc7B0VCQOsmvqgbZFYNfk4ssYuQMKRnEAL9jXjsjroIDDZjq9NCjiQUIEis56HBdZTrbtPYD396MgKjxFM4clP5ALnw4X1qoWGIN1pE+SJMjjeIN0jJKELs4TxY5bigmmbkyV8/ieedWwQoInKcYqg0DOpeE+8+FYGd4tZ/L5bOUmJURD3c0qO1yte9vU2qILPrwEkYS4gmXZFK15Kdky/N5PhFCcYQrWB/WgRIdq5dkVFHtvKCsfGp4XWVFX31dmOE1jJj3tpMaRjJMSWPtQvJQQGOShXBtIijKYXOkGmTv34+RrmWi9Zwx01BeOuRMOkEJke8drEUWq82qmI2G5ArAsvobcA2yWN/9+4J5drX786WjmpQ3qgs8LQhcq3+AUZkSOjIFFfO14JqOieoFzs6U5ZYbEnoilTK9NHDeos7dPzYH+frzFm8Sc3XocL9yzMR4rIcFstYVx6wIRpH+KB1Y18MkXO0ifZX6tMivZ0ijIbGQrkmnXi8ksyO/xRJbPtrHb5j3CaB9A71xAPUDDCjQ0wA7uoXjFqXGUHafjAXr05NQH3JwSdLytYgxAtnzqYpl8vrZfmwXctG6Ou0XFfoilSCLmZQn44olgbniAwnOG/bc1Tte2ZkPbx0b30sXJ+JP311+kIudzmQGtdieWiwF5LTipTrDJb8kge4ChZa1vk8sS4nh5x2QpdNcjUcllCwUQSPItz5WknwaJ6CLh1y+lfur4/5HzUVjxGNv42LxLuPR6BxGaNIx8TlU2nniGf6+PmGKjyQxAUrtuHsuUzHeQP8MEJCE+/NoVdzhe5IJQbd3FHd4EShpGbgL9sqbsZRhnv3yXA8fHs9TJe04oufz6n67tUgVEQRxzBzhLhuIm58pdH3x+VL2lGgctE1O3KQICq3gcRHolG4j8Rdi7Ic7mctmQ3+wsR4lV6VNRzGV+3iIkmITa6RBXvGUBI1aWaypDYJyqWWREaOFa/PSFQ5+J/ku97VzzFNZ9/heKzbesBxR590+D7dWl4o+JeELknlrRN3Si/kL0NwOxJ3WiT8LtUjOYHso+cjcGvXmnjrH6exQFKJEh31AhhPLWJNrnlqXYlTVmnkRFG+rRr7q9kRR8Uy3pRz/X1uKiZKOlJLYvZQEU5E/86BaN7IT813mjE3BW9Kgy/dlImWIpgonOgFuGmfwf9pwYzVRRa7KFl/DOwdhG+XpOGT/5zFu1+eVjnryeRCFXNdQSH14bfJ+OnXLJWDvzgq1PF6QRHmLtkkfwvFgwHhIbVwe79O6nuXtFJCl6QSPTu3RMdWTVRP5C9OLPl1JxLPOH4nh9WhKSL5I+p645XJCdghCrM0UOBEisUFimLW0EQsj9aXnmWFrwiYtx8NQ/8uNUUZn5dGT1bznl6X1/p1ctRbWX786q1GCJT0aaKQsmhDJnq2r4Hxv3NUt9RniLCq4Zz2ydBLsdWwvjf8vEXBy2dMHNsQ3cUr/GN+Kn5YliGdyU8VGThKo4Ed4Xsh/lPJwUf1D8YfH7uYg6/Zsg/7j0jeLh3caChWt2iGCbFlreuv64lnvL3vr3+fg9zcfFgsNgzo0x5PPzhIvpxDYCzflo37J8QhpqEPZr4fLQn7pTGKrpLVoZZiaQ1DHcX+tEwrdshrzSJ9ESUNT7BkuFM6BnVTMzlXYyG9JOgqtx3Kg0Hag6SE13Ocj4KN1SO+RjFDYcQ0hqVMWilfI/LEVW85mCffo1h9dslZGXTPD/3pBJpH+uDHv0Qjop5jf0qa5OaTf0ByisMjtWnWEOOfHg4fb+9SrZTQ/WzCb+asUtM5VIogwum1Z0aiU5uL01hYYXpREvQ7+gZjxh+iLqso9Yq9x/Mw8jVOeQXmfBCNdk0dQ4useX/9X37/rfDyNquC/suP3YEu7aJRVFS2+tet+9Uw7JYuaFC/jgpWTG3mLtmsFunQ8Pgd9fCauMsfV2bgY4l71zJYXZlgVevVKQkqF532auQFQokjcWewatMeIdSk0pYeHZqhY+vGQujlVb/uSa1bu6aa0Mw7rhlTDkhs4V3jrq7njYfDMOb2ukLqWcxcka7ikycgO9eGdz4/jfV7cvGhiD9ObdHADjxHOjDHUNmhOaY6fEA3Z0nw8t9P96QSvbu0RJvmjRzyXa7455XbkJTqqM0SzCU/HtsAfTqIgJmWiNWxjjFYPaOgqFip4O8Wn8Mr94XiCfE4rti04zB2HohT6p8UDujdHpHhdR1tcAV4BKmcrzNSrDXAzzFfh+sR8Y4310oK5/fSfbG0xiEujqboFSwjzlmdgb98cwajbquNNx5x/LCvBt5XM3/FVtgkR2dc5Tjybb3aCqEcT3UedBl4BKlE2xaNcHP31qpB6IbpgnlvqiuoQP/xWpRSqi9OildDbXrEul05qvjQrVUNTHyhIQJc7oIjiUvX7MCJU2fVsBrr3yMGdkVwcA21rzzwGFIJFiR4QxQ7KxPxHxduUJOdXXFT+0A1vWXTnvNqdgTjlp7AiWWsSAXXMGL676NUbdcVcfHJ+OXXHeJ2jWqAo2v7aLUMH1ceLS88itT6dWupdRIIWitLZxu2H1TPXcH5Pq89Eo5vF6epwWyW51i/ZUmxsjZWnc6mW1XM55SWqUJoq8a+zit2gMTNk/Ql+7yjmFKrZoC6+YupXFk5aWnwuLvemM78ZdpsHDyeoIr+keH1MOGle9WsfVdQAT/7UTx+WJamYhaLBSwMVBYo5tbsOI9Zq9Ix5eVIdTdeSVAcTfpygWpzxs+7BnXH70bcDN6hcDXwOFKJ2H1x+PTzeUr2F1lsGDW0Jx4Y3lfNDXZFRrYNY94/gTU7c0RsMRXgVjngb6uymvT83SFqslxJZJ/Px3tTZuHoySQRg0aldCeMvUfNcaYbvhp4JKlsoqnfLMLKTXvVlFGq4rdeuKfUpXaY3K+OzVbfqzLBNuWyAEN7BcG3xHRStvHcpZvx77m/qlkeLEU+/cAg9O/V5qqtlPBQUrnKWSren/ZfpGXkiPS3o2eX5hg35g6V/ngaEpJS8efJ/0V6ZraqP3dtF41xjw276liqwaOEkisYS9Vgunxps5cJ23YfUzdSeRo4XrxgxXY1L4uzK7jGAytHvP/2WgglPJZUgsvAMTG3i6jgMNRPS7ZIHL22e1oqC1yUZN3W/UrNMwfn4HfzJuGi1q89FfNoUtWUDuc6hGajWeV4y9fulCT92nr4jQaV/DyJpYWFjhXbOHAxVFux7RqtlPBoUokeHbhiWFNY7Y5FkXlDFeOtJ2C1CL19R7noNFdsMyhCHYPf1zfS5PGkspQ2YnB3BEuizpjEVa5/WrblqiowlYHk1Aw1kYxpFnPSVjGRuLl7y2tSuyXh8aQSXInzlp5c/MIuKYEXNm0/pFYX1StoiQtXbnfcGS4W6u+ctF7azMBrQZUglRjYpx0iQmurRtFugzyf57hdQW/gQAQHJDiTgQT37twCbVtEXZc4ckWVITWkTk2x1paq5zNGHTqWgFUb97il57sTavbG0i3IVR3OgMAafhgkKl7dd+umay0XqZVdjSkP1HQPSdpbNA1T6pfxddGqWCSlXBxM1wM2xB7Czv1x6l4YXnO4eJfQesHy2H2jSeUilbXHAulh/JVDvW5MC7y9zRgsbjjA30cpYYoRLsVON0wLKe19N2rj53N2/bxlm1HMKfuqDs15zI6qkTsdyhXLhJxpwN9R6d6x2SWTovUG9k6Tkfe9GNSvMXK9CForp5PyhmWq48q8frrXg8cSsWnHIVX+I1hN4iz7Pzw93L0/C1YWqdO43u+2AxcqHVe7kuWNBglkPOW9m2xANhBfo5dxpDeyrxLDiOJLPp8zGRxwtOkN/VkwDhUptyCPpZ3UYsl63swmuUjVIYtVrOJ1a9M/HLdvOH5luLI2fr5jgWa5NjESXp+6Rraxm8jUUIqlGlRjzJaU4OiJM3JBV75bW4/gl8ovKBCC3dtg7gCH12iZ9CKsID1w502qgO+u8PAbUgmenHN/2LP01yTlB9cbotXqDRR0/C0aRgNO+fTz8Snz7rlrQamkEnRZng53NpRbIe7Xtau5W6+USWpVgJtDlfvgCP8VBkN+fn6VJfV/FeUqPlTDkwD8P1U1EQBziaklAAAAAElFTkSuQmCC;" vertex="1" parent="1">
          <mxGeometry x="160" y="660" width="117" height="167" as="geometry" />
        </mxCell>
      </root>
    </mxGraphModel>
  </diagram>
</mxfile>
